<svg width="13" height="13" viewBox="0 0 13 13" fill="none" xmlns="http://www.w3.org/2000/svg">
<circle cx="6.5" cy="6.5" r="6.5" fill="#F0F2F3"/>
<path d="M4.01447 8.23333C4.31748 8.23333 4.56312 7.98749 4.56312 7.68424C4.56312 7.38098 4.31748 7.13515 4.01447 7.13515C3.71146 7.13515 3.46582 7.38098 3.46582 7.68424C3.46582 7.98749 3.71146 8.23333 4.01447 8.23333Z" fill="#707070"/>
<path d="M3.92243 9.73332C3.93427 9.74568 3.94849 9.75553 3.96424 9.76225C3.97999 9.76898 3.99693 9.77244 4.01405 9.77244C4.03118 9.77244 4.04812 9.76898 4.06387 9.76225C4.07962 9.75553 4.09384 9.74568 4.10568 9.73332L5.01744 8.78106C5.5648 8.21158 5.565 7.28068 5.01787 6.70593C4.88916 6.56879 4.73372 6.45948 4.56114 6.38475C4.38855 6.31001 4.20248 6.27143 4.01441 6.27139C3.82634 6.27135 3.64025 6.30985 3.46764 6.38451C3.29502 6.45917 3.13953 6.56841 3.01076 6.70548C2.46334 7.27501 2.46315 8.20587 3.01054 8.78088L3.92243 9.73332ZM4.01405 6.8814C4.17265 6.88139 4.3277 6.92842 4.45957 7.01654C4.59145 7.10465 4.69424 7.22989 4.75493 7.37642C4.81563 7.52296 4.83152 7.6842 4.80058 7.83975C4.76963 7.99531 4.69326 8.1382 4.58111 8.25035C4.46896 8.36251 4.32607 8.43888 4.17051 8.46983C4.01496 8.50077 3.85372 8.48489 3.70718 8.4242C3.56065 8.3635 3.43541 8.26072 3.34729 8.12884C3.25917 7.99697 3.21214 7.84192 3.21214 7.68332C3.21238 7.47071 3.29694 7.26688 3.44728 7.11654C3.59761 6.96621 3.80144 6.88164 4.01405 6.8814Z" fill="#707070"/>
<path d="M8.98664 4.56716C9.28965 4.56716 9.53529 4.32132 9.53529 4.01807C9.53529 3.71482 9.28965 3.46898 8.98664 3.46898C8.68363 3.46898 8.43799 3.71482 8.43799 4.01807C8.43799 4.32132 8.68363 4.56716 8.98664 4.56716Z" fill="#707070"/>
<path d="M8.98624 2.60522C8.7982 2.60514 8.61215 2.64362 8.43957 2.71828C8.267 2.79295 8.11157 2.90221 7.98289 3.03932C7.43552 3.60881 7.43533 4.53971 7.98271 5.11473L8.8946 6.06715C8.90644 6.07952 8.92066 6.08936 8.93641 6.09609C8.95216 6.10281 8.9691 6.10628 8.98623 6.10628C9.00335 6.10628 9.0203 6.10281 9.03604 6.09609C9.05179 6.08936 9.06601 6.07952 9.07786 6.06715L9.98961 5.11491C10.537 4.54543 10.5372 3.61453 9.99004 3.03978C9.86134 2.90254 9.70585 2.79317 9.53319 2.71843C9.36053 2.64368 9.17438 2.60516 8.98624 2.60522ZM8.98624 4.81907C8.82763 4.81907 8.67259 4.77205 8.54071 4.68393C8.40883 4.59582 8.30604 4.47058 8.24535 4.32404C8.18465 4.17751 8.16877 4.01627 8.19971 3.86071C8.23065 3.70516 8.30702 3.56227 8.41917 3.45011C8.53132 3.33796 8.67421 3.26158 8.82977 3.23064C8.98533 3.1997 9.14657 3.21558 9.2931 3.27627C9.43963 3.33697 9.56487 3.43975 9.65299 3.57163C9.74111 3.7035 9.78814 3.85855 9.78814 4.01715C9.7879 4.22976 9.70334 4.43359 9.553 4.58392C9.40267 4.73426 9.19884 4.81883 8.98624 4.81907Z" fill="#707070"/>
<path d="M3.99463 10.1134C3.99472 10.189 4.02482 10.2616 4.07832 10.3151C4.13183 10.3686 4.20438 10.3987 4.28005 10.3988H5.48516C6.34202 10.3988 7.03911 9.69376 7.03911 8.8369V7.67936C7.03911 7.13727 7.48013 6.70417 8.02223 6.70417H8.67235C8.74805 6.70417 8.82065 6.6741 8.87417 6.62057C8.9277 6.56705 8.95777 6.49445 8.95777 6.41875C8.95777 6.34305 8.9277 6.27046 8.87417 6.21693C8.82065 6.1634 8.74805 6.13333 8.67235 6.13333H8.02223C7.16536 6.13333 6.46827 6.82249 6.46827 7.67936V8.8369C6.46827 9.37899 6.02725 9.82794 5.48516 9.82794H4.28005C4.20438 9.82803 4.13183 9.85813 4.07832 9.91163C4.02482 9.96514 3.99472 10.0377 3.99463 10.1134Z" fill="#707070"/>
</svg>
