<svg width="19" height="22" viewBox="0 0 19 22" fill="none" xmlns="http://www.w3.org/2000/svg">
<path d="M18.6913 7.82447C18.6473 7.61995 18.5268 7.43817 18.3527 7.31371L10.6091 0.716492C10.3017 0.468253 9.91345 0.332214 9.51239 0.332214C9.11132 0.332214 8.72306 0.468253 8.41564 0.716492L0.672086 7.31371C0.498022 7.43817 0.377519 7.61995 0.333496 7.82447V20.0258C0.333496 20.4021 0.488597 20.7629 0.764679 21.029C1.04076 21.2951 1.41521 21.4445 1.80565 21.4445H6.22212V15.1027C6.22212 14.3501 6.53232 13.6284 7.08448 13.0963C7.63665 12.5641 8.38555 12.2652 9.16643 12.2652H9.79947C10.5803 12.2652 11.3292 12.5641 11.8814 13.0963C12.4336 13.6284 12.7438 14.3501 12.7438 15.1027V21.4445H17.2191C17.6096 21.4445 17.984 21.2951 18.2601 21.029C18.5362 20.7629 18.6913 20.4021 18.6913 20.0258V7.82447Z" fill="white"/>
</svg>
