<svg width="48" height="48" viewBox="0 0 48 48" fill="none" xmlns="http://www.w3.org/2000/svg">
<mask id="mask0_149_22457" style="mask-type:luminance" maskUnits="userSpaceOnUse" x="0" y="0" width="48" height="48">
<path d="M48 0H0V48H48V0Z" fill="white"/>
</mask>
<g mask="url(#mask0_149_22457)">
<path fill-rule="evenodd" clip-rule="evenodd" d="M26 4.00018C13.856 4.00018 4 13.8562 4 26.0002C4 38.1442 13.856 48.0002 26 48.0002C38.144 48.0002 48 38.1442 48 26.0002C48 13.8562 38.144 4.00018 26 4.00018ZM39.992 36.6262C36.846 32.7982 29.212 31.5002 26 31.5002C22.788 31.5002 15.154 32.7982 12.008 36.6262C9.76402 33.6782 8.4 30.0042 8.4 26.0002C8.4 16.2982 16.298 8.40018 26 8.40018C35.702 8.40018 43.6 16.2982 43.6 26.0002C43.6 30.0042 42.236 33.6782 39.992 36.6262ZM18.3 20.5002C18.3 16.2322 21.732 12.8002 26 12.8002C30.268 12.8002 33.7 16.2322 33.7 20.5002C33.7 24.7682 30.268 28.2002 26 28.2002C21.732 28.2002 18.3 24.7682 18.3 20.5002Z" fill="#DADADA"/>
</g>
</svg>
