<svg width="48" height="48" viewBox="0 0 48 48" fill="none" xmlns="http://www.w3.org/2000/svg">
  <g>
    <path fill-rule="evenodd" clip-rule="evenodd" d="M24 46C36.1503 46 46 36.1503 46 24C46 11.8497 36.1503 2 24 2C11.8497 2 2 11.8497 2 24C2 36.1503 11.8497 46 24 46Z" fill="#DADADA"/>
    <path fill-rule="evenodd" clip-rule="evenodd" d="M33.2 22.29V17.25C33.2 16.0125 32.12 15 30.8 15H16.4C15.08 15 14 16.0125 14 17.25V30.75C14 31.9875 15.08 33 16.4 33H30.8C32.12 33 33.2 31.9875 33.2 30.75V25.71L38 30.1875V17.8125L33.2 22.29Z" fill="white"/>
    <path fill-rule="evenodd" clip-rule="evenodd" d="M23 29L24.5625 25.5625L28 24L24.5625 22.4375L23 19L21.4375 22.4375L18 24L21.4375 25.5625L23 29Z" fill="#DADADA"/>
  </g>
</svg>